<?xml version="1.0" encoding="utf-8"?>
<!-- Generator: Adobe Illustrator 16.0.0, SVG Export Plug-In . SVG Version: 6.00 Build 0)  -->
<!DOCTYPE svg PUBLIC "-//W3C//DTD SVG 1.1//EN" "http://www.w3.org/Graphics/SVG/1.1/DTD/svg11.dtd">
<svg version="1.1" id="Lager_1" xmlns="http://www.w3.org/2000/svg" xmlns:xlink="http://www.w3.org/1999/xlink" x="0px" y="0px"
	 width="600px" height="400px" viewBox="0 0 600 400" enable-background="new 0 0 600 400" xml:space="preserve">
<rect fill="#9966CC" width="600" height="400"/>
<path fill="none" stroke="#ECE7EC" stroke-width="14.256" stroke-miterlimit="10" d="M445.872,221.494v-40.897l-35.226-5.847
	c-2.763-11.763-7.359-22.817-13.479-32.842l20.521-25.271L388.77,87.715l-26.004,18.6c-11.078-7.295-23.512-12.696-36.848-15.731
	l-3.334-32.125h-40.899L276.38,90.42c-13.568,2.99-26.218,8.42-37.47,15.807l-25.705-20.872l-28.918,28.919l19.938,27.875
	c-6.494,10.698-11.256,22.564-13.906,35.207l-34.445,3.574v40.897l35.312,5.862c3.044,12.367,8.125,23.933,14.87,34.319
	l-20.956,25.81l28.92,28.92l27.779-19.869c10.323,6.339,21.744,11.064,33.913,13.822l3.451,33.275h40.898l5.515-33.221
	c12.813-2.875,24.804-7.928,35.561-14.749l28.446,23.098l28.919-28.916l-21.668-30.295c6.525-10.56,11.361-22.272,14.125-34.769
	L445.872,221.494z"/>
<g>
	<path fill="#ECE7EC" d="M219.258,201.775c0-4.613,0.791-8.634,2.373-12.064s3.959-6.107,7.134-8.033
		c3.174-1.925,6.987-2.888,11.44-2.888c5.144,0,9.231,1.28,12.265,3.84c3.033,2.56,4.667,6.478,4.903,11.754l-8.555,0.733
		c-0.254-3.089-1.074-5.313-2.461-6.671c-1.387-1.359-3.486-2.039-6.299-2.039c-7.52,0-11.279,4.966-11.279,14.897
		c0,5.239,0.883,9.019,2.651,11.335c1.768,2.316,4.428,3.475,7.983,3.475c2.89,0,5.049-0.67,6.475-2.009
		c1.425-1.339,2.402-3.27,2.93-5.792l8.438,1.438c-0.274,2.008-0.83,3.816-1.664,5.426c-0.834,1.607-1.83,2.934-2.988,3.978
		c-1.158,1.043-2.483,1.915-3.974,2.618c-1.492,0.701-3.008,1.203-4.549,1.506c-1.541,0.302-3.136,0.453-4.784,0.453
		C225.938,223.732,219.258,216.413,219.258,201.775z"/>
	<path fill="#ECE7EC" d="M263.115,223v-43.447h16.904c2.597,0,4.858,0.333,6.782,0.996c1.923,0.664,3.423,1.578,4.497,2.739
		c1.074,1.162,1.865,2.451,2.373,3.867c0.508,1.417,0.762,2.964,0.762,4.644c0,5.918-2.493,10.045-7.477,12.382L296.771,223h-9.931
		l-8.562-16.553h-5.934V223H263.115z M272.344,199.24h4.735c5.222,0,7.833-2.178,7.833-6.533c0-2.031-0.614-3.491-1.842-4.38
		c-1.228-0.889-3.107-1.333-5.641-1.333h-5.086V199.24z"/>
	<path fill="#ECE7EC" d="M301.055,207.092v-27.539h9.229v26.258c0,1.776,0.122,3.264,0.367,4.465c0.244,1.2,0.67,2.24,1.276,3.117
		c0.606,0.879,1.442,1.522,2.509,1.932c1.066,0.41,2.402,0.615,4.007,0.615c2.974,0,5.038-0.761,6.192-2.283
		c1.155-1.521,1.732-4.078,1.732-7.67v-26.434h9.229v27.773c0,5.586-1.513,9.717-4.537,12.393
		c-3.025,2.676-7.348,4.014-12.969,4.014c-5.932,0-10.254-1.343-12.967-4.028C302.411,217.02,301.055,212.814,301.055,207.092z"/>
	<path fill="#ECE7EC" d="M344.062,223v-43.447h15.247c7.311,0,12.729,1.836,16.258,5.508c3.527,3.672,5.292,8.858,5.292,15.557
		c0,3.379-0.454,6.421-1.363,9.126c-0.909,2.706-2.268,5.054-4.076,7.046c-1.808,1.992-4.163,3.525-7.065,4.6
		c-2.903,1.074-6.26,1.611-10.071,1.611H344.062z M353.291,215.559h4.57c4.824,0,8.276-1.226,10.356-3.677
		c2.08-2.45,3.12-6.05,3.12-10.796c0-2.676-0.259-4.926-0.776-6.753c-0.518-1.826-1.323-3.276-2.417-4.351
		c-1.094-1.074-2.417-1.841-3.97-2.3c-1.553-0.458-3.442-0.688-5.669-0.688h-5.215V215.559z"/>
</g>
</svg>
